<svg id="_24px_Upload_unvisited" data-name="24px_Upload_unvisited" xmlns="http://www.w3.org/2000/svg" width="24" height="24" viewBox="0 0 24 24">
  <path id="Icon_awesome-upload" data-name="Icon awesome-upload" d="M11.132,14.444H8.124a.9.9,0,0,1-.9-.9V7.223h-3.3a.751.751,0,0,1-.53-1.282L9.113.217a.729.729,0,0,1,1.027,0l5.724,5.724a.751.751,0,0,1-.53,1.282h-3.3v6.318A.9.9,0,0,1,11.132,14.444Zm8.124-.3v4.212a.9.9,0,0,1-.9.9H.9a.9.9,0,0,1-.9-.9V14.144a.9.9,0,0,1,.9-.9H6.017v.3a2.107,2.107,0,0,0,2.106,2.106h3.009a2.107,2.107,0,0,0,2.106-2.106v-.3h5.115A.9.9,0,0,1,19.256,14.144Zm-4.664,3.31a.752.752,0,1,0-.752.752A.754.754,0,0,0,14.592,17.453Zm2.407,0a.752.752,0,1,0-.752.752A.754.754,0,0,0,17,17.453Z" transform="translate(2 1.995)" fill="#a7c4ff"/>
  <rect id="Rectangle_599" data-name="Rectangle 599" width="24" height="24" fill="none" opacity="0.54"/>
</svg>
