<svg id="_24px_Classification_Visited" data-name="24px_Classification_Visited" xmlns="http://www.w3.org/2000/svg" width="24" height="24" viewBox="0 0 24 24">
  <g id="Group_11212" data-name="Group 11212">
    <path id="Path_10853" data-name="Path 10853" d="M7.768,17.078a6.34,6.34,0,0,1,4.707-6.113l-3.14-8.18a.667.667,0,0,0-1.247,0L2.048,18.492a.667.667,0,0,0,.62.907H8.214A6.293,6.293,0,0,1,7.768,17.078Z" transform="translate(-0.667 -0.785)" fill="#a7c4ff"/>
    <path id="Path_10854" data-name="Path 10854" d="M27.667,10h-8a.667.667,0,0,0-.667.667v2.667a6.287,6.287,0,0,1,7.087,6h1.58a.667.667,0,0,0,.667-.667v-8A.667.667,0,0,0,27.667,10Z" transform="translate(-6.333 -3.334)" fill="#a7c4ff"/>
    <circle id="Ellipse_65" data-name="Ellipse 65" cx="5" cy="5" r="5" transform="translate(8.433 11.293)" fill="#a7c4ff"/>
  </g>
  <rect id="Rectangle_603" data-name="Rectangle 603" width="24" height="24" fill="rgba(0,0,0,0)"/>
</svg>
