<svg id="_24px_Standard_Current" data-name="24px_Standard_Current" xmlns="http://www.w3.org/2000/svg" width="24" height="24" viewBox="0 0 24 24">
  <g id="banner-svgrepo-com" transform="translate(0.424 -69.676)">
    <path id="Path_10848" data-name="Path 10848" d="M79.8,180.1l2.862,3.383V180.1Z" transform="translate(-74.549 -95.936)" fill="#3f7eff"/>
    <path id="Path_10849" data-name="Path 10849" d="M190.909,180.1v3.382l2.861-3.382Z" transform="translate(-176.052 -95.936)" fill="#3f7eff"/>
    <path id="Path_10850" data-name="Path 10850" d="M202.577,157.393h6.384a.561.561,0,0,0,.5-.318.568.568,0,0,0-.058-.59l-1.3-1.689,1.288-1.541a.528.528,0,0,0-.424-.874h-3v.393a1.567,1.567,0,0,1-.295.959C204.941,154.684,202.577,157.393,202.577,157.393Z" transform="translate(-186.543 -69.843)" fill="#3f7eff"/>
    <path id="Path_10851" data-name="Path 10851" d="M3.844,153.734a1.606,1.606,0,0,1-.338-1v-.35H.552a.528.528,0,0,0-.424.874L1.416,154.8l-1.3,1.689a.569.569,0,0,0-.058.59.561.561,0,0,0,.5.317H6.936S4.59,154.671,3.844,153.734Z" transform="translate(0 -69.844)" fill="#3f7eff"/>
    <path id="Path_10852" data-name="Path 10852" d="M62.883,82.7a.672.672,0,0,0,.473.214H75.887a.632.632,0,0,0,.411-.174.567.567,0,0,0,.144-.368V76.98a.627.627,0,0,0-.626-.584H63.356a.592.592,0,0,0-.626.541v5.391A.58.58,0,0,0,62.883,82.7Z" transform="translate(-58.122 0)" fill="#3f7eff"/>
  </g>
  <rect id="Rectangle_600" data-name="Rectangle 600" width="24" height="24" fill="none" opacity="0.42"/>
</svg>
