<svg id="_24px_Duplicate_across_Current" data-name="24px_Duplicate_across_Current" xmlns="http://www.w3.org/2000/svg" width="24" height="24" viewBox="0 0 24 24">
  <rect id="Rectangle_599" data-name="Rectangle 599" width="24" height="24" fill="none" opacity="0.54"/>
  <g id="页面-1" transform="translate(1.288 1.289)">
    <g id="File">
      <g id="copy_3_fill">
        <path id="MingCute" d="M21.424,0V21.424H0V0ZM11.242,20.761l-.01,0-.063.032-.017,0h0l-.014,0-.063-.032a.019.019,0,0,0-.021,0l0,.01-.015.381,0,.018.01.011.092.066.013,0h0l.011,0,.092-.066.011-.014h0l0-.015-.015-.381a.019.019,0,0,0-.014-.016Zm.236-.1-.012,0-.165.082-.009.009h0l0,.01.016.383,0,.011h0l.008.006.179.083a.022.022,0,0,0,.025-.007l0-.012-.03-.549a.023.023,0,0,0-.017-.019Zm-.639,0a.021.021,0,0,0-.024,0l-.005.012-.03.549a.02.02,0,0,0,.015.021h.014l.179-.083L11,21.158h0l0-.011.016-.383,0-.011h0L11,20.745Z" fill="none"/>
        <path id="形状" d="M8.249,2A1.785,1.785,0,0,0,6.463,3.785v.893a.893.893,0,1,0,1.785,0V3.785h.893A.893.893,0,0,0,9.141,2Zm4.463,0a.893.893,0,0,0,0,1.785H13.6A.893.893,0,0,0,13.6,2Zm4.463,0a.893.893,0,0,0,0,1.785h.893v.893a.893.893,0,1,0,1.785,0V3.785A1.785,1.785,0,0,0,18.068,2Zm2.678,6.249a.893.893,0,1,0-1.785,0v.893a.893.893,0,1,0,1.785,0Zm0,4.463a.893.893,0,1,0-1.785,0V13.6h-.893a.893.893,0,0,0,0,1.785h.893A1.785,1.785,0,0,0,19.853,13.6ZM3.785,6.463A1.785,1.785,0,0,0,2,8.249v9.819a1.785,1.785,0,0,0,1.785,1.785H13.6a1.785,1.785,0,0,0,1.785-1.785V8.249A1.785,1.785,0,0,0,13.6,6.463Z" transform="translate(-0.215 -0.215)" fill="#3f7eff" fill-rule="evenodd"/>
      </g>
    </g>
  </g>
</svg>
