<svg id="_24px_Consolidated_list_unvisited" data-name="24px_Consolidated_list_unvisited" xmlns="http://www.w3.org/2000/svg" width="24" height="24" viewBox="0 0 24 24">
  <rect id="Rectangle_599" data-name="Rectangle 599" width="24" height="24" fill="none" opacity="0.54"/>
  <g id="list-on-a-clipboard-svgrepo-com" transform="translate(-17.787 2.341)">
    <path id="Path_10855" data-name="Path 10855" d="M35.5,2.289h-.4a1.4,1.4,0,0,0-1.35-1.05h-1.9a2.341,2.341,0,0,0-4.131,0h-1.9a1.4,1.4,0,0,0-1.351,1.05h-.4a1.4,1.4,0,0,0-1.4,1.4v14.23a1.4,1.4,0,0,0,1.4,1.4H35.5a1.4,1.4,0,0,0,1.4-1.4V3.688A1.4,1.4,0,0,0,35.5,2.289Zm-5.715-.934a1.006,1.006,0,1,1-1.006,1.007A1.006,1.006,0,0,1,29.787,1.355ZM25.72,14.769a.7.7,0,1,1,.7-.7A.7.7,0,0,1,25.72,14.769Zm0-3.5a.7.7,0,1,1,.7-.7A.7.7,0,0,1,25.72,11.27Zm0-3.5a.7.7,0,1,1,.7-.7A.7.7,0,0,1,25.72,7.77Zm8.446,7H28.02a.7.7,0,0,1,0-1.4h6.146a.7.7,0,0,1,0,1.4Zm0-3.5H28.02a.7.7,0,0,1,0-1.4h6.146a.7.7,0,0,1,0,1.4Zm0-3.5H28.02a.7.7,0,0,1,0-1.4h6.146a.7.7,0,0,1,0,1.4Z" fill="#a7c4ff"/>
  </g>
</svg>
