<svg id="Classification_42px" xmlns="http://www.w3.org/2000/svg" width="42" height="42" viewBox="0 0 42 42">
  <path id="Path_10844" data-name="Path 10844" d="M11.972,27.817a10.964,10.964,0,0,1,8.139-10.572L14.681,3.1a1.153,1.153,0,0,0-2.156,0L2.08,30.261a1.153,1.153,0,0,0,1.072,1.568h9.592A10.883,10.883,0,0,1,11.972,27.817Z" transform="translate(0.554 0.607)" fill="#3f7eff"/>
  <path id="Path_10845" data-name="Path 10845" d="M33.988,10H20.153A1.153,1.153,0,0,0,19,11.153v4.612A10.872,10.872,0,0,1,31.255,26.14h2.732a1.153,1.153,0,0,0,1.153-1.153V11.153A1.153,1.153,0,0,0,33.988,10Z" transform="translate(3.153 1.777)" fill="#3f7eff"/>
  <circle id="Ellipse_53" data-name="Ellipse 53" cx="8.647" cy="8.647" r="8.647" transform="translate(14.832 19.777)" fill="#3f7eff"/>
  <rect id="Rectangle_583" data-name="Rectangle 583" width="42" height="42" fill="rgba(0,0,0,0)"/>
</svg>
