<svg id="File_42px" xmlns="http://www.w3.org/2000/svg" width="42" height="42" viewBox="0 0 42 42">
  <path id="Icon_awesome-file-upload" data-name="Icon awesome-file-upload" d="M15.976,9.7V0H1.712A1.708,1.708,0,0,0,0,1.712V34.8a1.708,1.708,0,0,0,1.712,1.712H25.675A1.708,1.708,0,0,0,27.387,34.8V11.411h-9.7A1.717,1.717,0,0,1,15.976,9.7Zm4.649,15.406H15.976v5.706a1.141,1.141,0,0,1-1.141,1.141H12.552a1.141,1.141,0,0,1-1.141-1.141V25.105H6.763a1.141,1.141,0,0,1-.8-1.951l6.877-6.825a1.216,1.216,0,0,1,1.715,0l6.877,6.825A1.141,1.141,0,0,1,20.624,25.105ZM26.887,7.489,19.905.5A1.71,1.71,0,0,0,18.693,0h-.435V9.129h9.129V8.694A1.706,1.706,0,0,0,26.887,7.489Z" transform="translate(7.307 2.742)" fill="#3f7eff"/>
  <rect id="Rectangle_574" data-name="Rectangle 574" width="42" height="42" fill="none" opacity="0.22"/>
</svg>
