<svg xmlns="http://www.w3.org/2000/svg" width="155.364" height="30.35" viewBox="0 0 155.364 30.35">
  <g id="jk-tech-logo" transform="translate(-419.94 -317.03)">
    <path id="Path_4" data-name="Path 4" d="M503.807,333.017l10.885-14.747h-4.647a4.759,4.759,0,0,0-3.8,2.629l-7.78,10.2a3.559,3.559,0,0,0-.741,1.9l.024.27a3.41,3.41,0,0,0,.7,1.642l7.8,10.227a4.759,4.759,0,0,0,3.8,2.629H514.7Z" transform="translate(-46.938 -0.748)" fill="#4474fc" fill-rule="evenodd"/>
    <path id="Path_5" data-name="Path 5" d="M424.377,342.579a3.614,3.614,0,0,0-4.2,2.562l-.238.868a11.055,11.055,0,0,0,6.416,1.836,13.168,13.168,0,0,0,5.833-1.086,7.705,7.705,0,0,0,3.311-3.041,12.334,12.334,0,0,0,1.5-4.727,48.442,48.442,0,0,0,.353-6.146V317.8H431.6v15.044q0,2.5-.167,4.354a10.133,10.133,0,0,1-.71,3.1,3.8,3.8,0,0,1-1.582,1.852,5.534,5.534,0,0,1-2.792.6,10.01,10.01,0,0,1-1.975-.178" transform="translate(0 -0.465)" fill="#4474fc"/>
    <path id="Path_6" data-name="Path 6" d="M479,317.44H476.85v25.985a3.6,3.6,0,0,0,3.6,3.6H482.6V321.04a3.6,3.6,0,0,0-3.6-3.6" transform="translate(-34.344 -0.247)" fill="#4474fc"/>
    <path id="Path_7" data-name="Path 7" d="M550.489,317.44h-2.677a3.613,3.613,0,0,0-3.382,3.1v1.832H551.9a3.613,3.613,0,0,0,3.382-3.1V317.44Z" transform="translate(-75.126 -0.247)" fill="#fff" fill-rule="evenodd"/>
    <path id="Path_8" data-name="Path 8" d="M628.53,341.991v-7.709h8.859a3.6,3.6,0,0,0,3.6-3.6v-1.063H628.53V322.49h10.813a3.6,3.6,0,0,0,3.6-3.6V317.45H622.78v25.985a3.6,3.6,0,0,0,3.6,3.6H639.72a3.6,3.6,0,0,0,3.6-3.6V342H628.53Z" transform="translate(-122.408 -0.253)" fill="#fff"/>
    <path id="Path_9" data-name="Path 9" d="M676.9,337.344a16.167,16.167,0,0,0,2.958,4.877,15.092,15.092,0,0,0,4.52,3.482,12.63,12.63,0,0,0,5.793,1.332,15.437,15.437,0,0,0,3.668-.46,15.156,15.156,0,0,0,3.521-1.332,12.863,12.863,0,0,0,2.958-2.145,8.957,8.957,0,0,0,2.022-2.938l-2.284-1.313a3.067,3.067,0,0,0-3.743.646,14.646,14.646,0,0,1-1.832,1.416,7.891,7.891,0,0,1-2.062.789,9.316,9.316,0,0,1-2.086.25,7.523,7.523,0,0,1-3.521-.833,8.872,8.872,0,0,1-2.752-2.209,10.067,10.067,0,0,1-1.772-3.188,11.5,11.5,0,0,1-.627-3.771,12,12,0,0,1,.539-3.521,9.992,9.992,0,0,1,1.606-3.168,8.288,8.288,0,0,1,2.669-2.272,7.758,7.758,0,0,1,3.771-.876,9.628,9.628,0,0,1,2.042.23,8.117,8.117,0,0,1,2,.73,7.057,7.057,0,0,1,1.792,1.356l.02.02a2.884,2.884,0,0,0,3.723.484l2.09-1.439a11.414,11.414,0,0,0-4.437-4.667,13.459,13.459,0,0,0-7.062-1.792,14.107,14.107,0,0,0-6.166,1.293,14.417,14.417,0,0,0-4.584,3.374,14.631,14.631,0,0,0-2.855,4.731,15.382,15.382,0,0,0-.979,5.353,15.556,15.556,0,0,0,1.071,5.563" transform="translate(-154.422)" fill="#fff"/>
    <path id="Path_10" data-name="Path 10" d="M751.159,317.44H749.01v25.985a3.6,3.6,0,0,0,3.6,3.6h2.149V321.04a3.6,3.6,0,0,0-3.6-3.6" transform="translate(-198.584 -0.247)" fill="#fff"/>
    <path id="Path_11" data-name="Path 11" d="M784.268,317.44a3.6,3.6,0,0,0-3.6,3.6v8.517h-7.586a3.613,3.613,0,0,0-3.382,3.1v1.832h10.968v8.934a3.6,3.6,0,0,0,3.6,3.6h2.106V317.444h-2.106Z" transform="translate(-211.07 -0.247)" fill="#fff"/>
    <path id="Path_12" data-name="Path 12" d="M578.154,322.5v24.545h2.106a3.6,3.6,0,0,0,3.6-3.6V322.5h5.857a3.609,3.609,0,0,0,3.6-3.6V317.46H578.15Z" transform="translate(-95.475 -0.26)" fill="#fff"/>
    <path id="Path_13" data-name="Path 13" d="M498.452,346.641a3.559,3.559,0,0,0-.742,1.9l.024.27a3.409,3.409,0,0,0,.7,1.642l2.018,2.645,3.351-4.54-3.347-4.536Z" transform="translate(-46.932 -16.288)" fill="#324fb5"/>
  </g>
</svg>
